<?xml version="1.0" encoding="UTF-8"?>
<svg width="498px" height="106px" viewBox="0 0 498 106" version="1.1" xmlns="http://www.w3.org/2000/svg" xmlns:xlink="http://www.w3.org/1999/xlink">
    <!-- Generator: Sketch 39.1 (31720) - http://www.bohemiancoding.com/sketch -->
    <title>logo-armas-negative</title>
    <desc>Created with Sketch.</desc>
    <defs></defs>
    <g id="Page-1" stroke="none" stroke-width="1" fill="none" fill-rule="evenodd">
        <g id="logo-armas-negative">
            <polygon id="Path" fill="#FFFFFF" points="9.40659906 96.5714764 22.9558479 96.7195426 53.2723966 44.1106764 82.9262298 96.8485034 97.5191063 96.9273128 53.1147778 21.746714"></polygon>
            <polygon id="Path-Copy" fill="#FFFFFF" points="268 96.8247624 281.549249 96.9728286 311.865798 44.3639624 341.519631 97.1017894 356.112507 97.1805988 311.708179 22"></polygon>
            <path d="M97.4941317,22.627535 L97.4384455,34.8444819 C97.4384455,34.8444819 120.180663,34.7279531 130.879076,34.7279532 C136.930663,34.7279531 140.161151,38.3388673 140.161151,45.7930195 C140.161151,53.2471718 139.130955,57.9676884 131.196694,57.9676861 C123.262433,57.9676839 97.4384455,57.9676877 97.4384455,57.9676877 L135.820716,96.6304509 L152.049137,96.8006033 L122.321954,68.286144 C122.321954,68.286144 125.284667,68.2861427 134.481151,68.2861424 C143.677635,68.2861422 151.865575,59.2113461 151.865578,46.9696496 C151.865581,34.7279531 142.444287,22.7657194 130.549084,22.7657194 C118.653881,22.7657194 97.4941317,22.627535 97.4941317,22.627535 Z" id="Path-2" fill="#FFFFFF"></path>
            <polygon id="Path-3" fill="#FFFFFF" points="160.128801 96.299427 182.623988 21.2838461 213.621642 75.4469847 244.65642 21.828334 266.317344 96.8645394 253.923026 96.817103 241.755578 49.7354006 214.087756 96.322114 186.772614 50.4613844 174.332922 96.3221151"></polygon>
            <path d="" id="Path-4" stroke="#979797"></path>
            <path d="M411.305806,22.7925313 L411.441928,35.5835814 L379.637853,35.5835812 C379.637853,35.5835812 368.875969,34.5199121 368.875969,44.2018369 C368.875969,53.8837616 377.377404,53.0497647 377.377404,53.0497643 C377.377404,53.049764 385.629284,53.049764 392.150764,53.049764 C402.264007,53.049764 416.747592,56.0052636 416.747591,71.8913138 C416.74759,87.7773641 405.430905,95.4063888 395.842556,95.4063847 C386.254206,95.4063806 360.987081,95.4063844 360.987081,95.4063844 L360.898396,84.4805337 C360.898396,84.4805337 390.168744,84.4805366 395.842556,84.4805348 C401.516367,84.480533 405.119476,80.9836438 405.119476,75.3686116 C405.119476,69.7535794 402.450658,64.6397259 395.842556,64.639726 C389.234453,64.639726 377.838363,64.6397252 373.979511,64.639726 C370.120659,64.6397267 356.135158,59.3433431 356.135158,44.2018362 C356.135158,29.0603292 368.875969,22.7925313 382.781034,22.7925313 C396.6861,22.7925313 411.305806,22.7925313 411.305806,22.7925313 Z" id="Path-5" fill="#FFFFFF"></path>
            <polygon id="Path-6" fill="#FECB00" points="452 43.707688 452.31968 3 486.200645 23.1078963"></polygon>
            <polygon id="Path-7" fill="#FFFFFF" points="451.926871 55.3380571 486.488445 33.4801685 486.169796 75.1015236 452.011431 95.9549972"></polygon>
        </g>
    </g>
</svg>