<?xml version="1.0" encoding="utf-8"?>
<!-- Generator: Adobe Illustrator 26.0.3, SVG Export Plug-In . SVG Version: 6.00 Build 0)  -->
<svg version="1.1" id="Layer_1" xmlns="http://www.w3.org/2000/svg" xmlns:xlink="http://www.w3.org/1999/xlink" x="0px" y="0px"
	 viewBox="0 0 92 68" enable-background="new 0 0 92 68" xml:space="preserve">
<g>
	<path id="Trazado_1_00000027603702476588217240000016219304239497479833_" fill="#1C3D6E" d="M37.542,8.65l7.925,4.336l8.256-4.429
		l-8.081-4.411L37.542,8.65z"/>
	<path id="Trazado_2_00000036935136025295795570000013636730117240913540_" fill="#1C3D6E" d="M30.497,15.266l6.798-3.249
		l8.389,4.75l8.483-4.614l6.602,3.276l-15.152,8.283L30.497,15.266z"/>
	<path id="Trazado_3_00000134221627451914869070000006164318064593407653_" fill="#1C3D6E" d="M21.165,25.035l10.036-5.137
		l14.34,8.028l14.367-7.653L70.1,25.066L45.52,38.766L21.165,25.035z"/>
	<path id="Trazado_4_00000051372730367043622880000008681969744439448993_" fill="#1C3D6E" d="M65.026,61.035
		c-0.045,0.073-0.117,0.124-0.201,0.142c-0.086,0.027-0.173,0.048-0.261,0.062c-0.233,0.041-0.472,0.078-0.719,0.111
		c-0.229,0.028-0.455,0.077-0.676,0.146c-0.186,0.055-0.357,0.151-0.501,0.28c-0.137,0.138-0.209,0.328-0.197,0.522
		c-0.003,0.132,0.025,0.262,0.082,0.381c0.054,0.109,0.129,0.207,0.221,0.287c0.095,0.081,0.204,0.143,0.322,0.183
		c0.121,0.041,0.247,0.063,0.374,0.063c0.205,0.001,0.408-0.032,0.602-0.098c0.184-0.061,0.355-0.158,0.501-0.285
		c0.144-0.127,0.261-0.282,0.342-0.457c0.087-0.191,0.131-0.398,0.128-0.607v-0.731L65.026,61.035z M62.286,59.652
		c0.087-0.188,0.217-0.354,0.38-0.482c0.168-0.128,0.359-0.221,0.563-0.274c0.233-0.062,0.474-0.093,0.715-0.091
		c0.199,0.001,0.397,0.021,0.592,0.059c0.19,0.037,0.371,0.111,0.531,0.22c0.164,0.117,0.296,0.275,0.383,0.457
		c0.107,0.237,0.157,0.496,0.146,0.756l-0.005,2.451c0,0.226,0.107,0.339,0.322,0.341c0.06,0.001,0.119-0.012,0.174-0.036v0.474
		c-0.064,0.012-0.121,0.021-0.17,0.026c-0.062,0.007-0.125,0.01-0.187,0.009c-0.115,0.004-0.229-0.016-0.335-0.059
		c-0.08-0.035-0.148-0.093-0.195-0.165c-0.049-0.077-0.08-0.164-0.091-0.255c-0.015-0.108-0.022-0.218-0.021-0.327h-0.017
		c-0.092,0.139-0.193,0.272-0.302,0.397c-0.098,0.113-0.213,0.211-0.34,0.29c-0.133,0.082-0.277,0.143-0.427,0.183
		c-0.187,0.044-0.379,0.065-0.571,0.061c-0.199,0.001-0.396-0.025-0.588-0.077c-0.175-0.047-0.338-0.129-0.479-0.242
		c-0.138-0.114-0.248-0.258-0.322-0.421c-0.082-0.191-0.121-0.396-0.116-0.604c-0.015-0.268,0.059-0.534,0.211-0.755
		c0.145-0.185,0.336-0.329,0.554-0.416c0.249-0.1,0.51-0.167,0.776-0.2c0.288-0.037,0.58-0.075,0.876-0.11
		c0.116-0.012,0.218-0.026,0.306-0.044c0.078-0.014,0.153-0.045,0.217-0.091c0.06-0.048,0.107-0.111,0.135-0.183
		c0.035-0.097,0.052-0.201,0.048-0.304c0.006-0.161-0.025-0.322-0.091-0.469c-0.057-0.118-0.144-0.218-0.252-0.291
		c-0.113-0.074-0.24-0.124-0.374-0.148c-0.151-0.028-0.304-0.041-0.457-0.041c-0.305-0.014-0.607,0.076-0.855,0.254
		c-0.238,0.205-0.367,0.509-0.35,0.822h-0.548c0.011-0.241,0.067-0.478,0.166-0.698 M61.124,63.567h-0.548l0.009-4.615h0.548
		L61.124,63.567z M61.135,58.086h-0.548v-0.903h0.548V58.086z M58.347,58.948v1.082h0.017c0.121-0.35,0.349-0.652,0.651-0.866
		c0.31-0.206,0.68-0.302,1.05-0.274v0.564c-0.231-0.015-0.463,0.019-0.68,0.101c-0.198,0.076-0.378,0.193-0.528,0.343
		c-0.151,0.151-0.268,0.332-0.345,0.532c-0.084,0.215-0.126,0.444-0.124,0.675l-0.005,2.46h-0.548l0.009-4.615L58.347,58.948z
		 M56.184,61.037c-0.045,0.073-0.118,0.124-0.201,0.142c-0.086,0.027-0.173,0.047-0.261,0.062c-0.233,0.041-0.472,0.078-0.719,0.11
		c-0.229,0.028-0.455,0.077-0.676,0.146c-0.186,0.055-0.357,0.151-0.501,0.28c-0.137,0.138-0.209,0.328-0.197,0.522
		c-0.003,0.132,0.025,0.262,0.082,0.381c0.054,0.109,0.129,0.207,0.221,0.287c0.094,0.081,0.204,0.143,0.322,0.183
		c0.12,0.042,0.247,0.063,0.374,0.063c0.205,0.001,0.408-0.031,0.602-0.097c0.184-0.061,0.355-0.158,0.501-0.285
		c0.144-0.127,0.26-0.282,0.341-0.457c0.087-0.191,0.131-0.398,0.128-0.607v-0.731L56.184,61.037z M53.444,59.653
		c0.087-0.188,0.217-0.354,0.38-0.482c0.168-0.128,0.359-0.221,0.563-0.274c0.233-0.063,0.474-0.093,0.715-0.091
		c0.199,0.001,0.397,0.02,0.592,0.059c0.19,0.036,0.371,0.111,0.531,0.22c0.164,0.117,0.296,0.274,0.383,0.457
		c0.107,0.237,0.157,0.496,0.146,0.756l-0.005,2.451c0,0.227,0.107,0.34,0.322,0.341c0.06,0.001,0.12-0.011,0.174-0.036v0.474
		c-0.064,0.011-0.121,0.02-0.17,0.026c-0.062,0.007-0.125,0.009-0.187,0.008c-0.115,0.005-0.229-0.015-0.335-0.058
		c-0.08-0.035-0.147-0.093-0.195-0.165c-0.049-0.077-0.08-0.165-0.091-0.256c-0.015-0.108-0.022-0.218-0.021-0.327h-0.017
		c-0.092,0.139-0.193,0.272-0.302,0.398c-0.098,0.113-0.213,0.211-0.34,0.29c-0.133,0.081-0.277,0.141-0.427,0.178
		c-0.187,0.044-0.379,0.065-0.571,0.061c-0.199,0.001-0.396-0.025-0.588-0.077c-0.175-0.047-0.337-0.13-0.479-0.243
		c-0.138-0.113-0.249-0.258-0.322-0.421c-0.082-0.19-0.122-0.396-0.116-0.604c-0.015-0.268,0.059-0.534,0.211-0.755
		c0.145-0.185,0.336-0.328,0.554-0.415c0.249-0.1,0.51-0.167,0.776-0.2c0.288-0.038,0.58-0.075,0.876-0.111
		c0.102-0.009,0.204-0.024,0.305-0.044c0.079-0.013,0.154-0.044,0.218-0.091c0.061-0.048,0.107-0.111,0.135-0.183
		c0.036-0.097,0.052-0.201,0.048-0.304c0.006-0.161-0.025-0.322-0.091-0.469c-0.056-0.118-0.143-0.218-0.251-0.291
		c-0.114-0.074-0.241-0.124-0.374-0.148c-0.151-0.028-0.303-0.042-0.457-0.041c-0.305-0.014-0.606,0.075-0.854,0.253
		c-0.238,0.205-0.367,0.509-0.35,0.822h-0.548c0.011-0.241,0.068-0.478,0.167-0.698 M52.283,63.561h-0.548l0.009-4.615h0.548
		L52.283,63.561z M52.294,58.081h-0.548v-0.903h0.548V58.081z M50.681,63.561h-0.548l0.013-6.385h0.548L50.681,63.561z
		 M49.079,63.561h-0.548l0.009-4.615h0.548L49.079,63.561z M49.09,58.081h-0.548v-0.903h0.548V58.081z M47.052,60.541
		c-0.05-0.224-0.137-0.437-0.259-0.631c-0.116-0.184-0.272-0.34-0.457-0.457c-0.202-0.121-0.435-0.182-0.67-0.176
		c-0.257-0.009-0.511,0.051-0.737,0.173c-0.195,0.111-0.362,0.265-0.489,0.45c-0.129,0.192-0.222,0.405-0.274,0.63
		c-0.11,0.468-0.11,0.955,0,1.422c0.05,0.225,0.141,0.439,0.269,0.631c0.125,0.187,0.292,0.344,0.487,0.457
		c0.225,0.123,0.479,0.184,0.736,0.176c0.236,0.008,0.469-0.052,0.671-0.173c0.184-0.114,0.34-0.268,0.457-0.45
		c0.123-0.194,0.211-0.407,0.262-0.63c0.11-0.468,0.11-0.955,0-1.422 M44.087,57.167l-0.005,2.649h0.017
		c0.055-0.16,0.139-0.309,0.249-0.438c0.107-0.124,0.232-0.231,0.372-0.317c0.142-0.087,0.296-0.152,0.457-0.192
		c0.16-0.041,0.324-0.061,0.489-0.061c0.309-0.007,0.615,0.061,0.892,0.198c0.248,0.128,0.464,0.31,0.631,0.533
		c0.173,0.234,0.3,0.498,0.374,0.779c0.163,0.613,0.163,1.257,0,1.87c-0.075,0.281-0.203,0.544-0.376,0.777
		c-0.168,0.222-0.384,0.402-0.633,0.526c-0.279,0.133-0.585,0.198-0.893,0.19c-0.345,0.005-0.684-0.085-0.98-0.261
		c-0.285-0.17-0.505-0.433-0.622-0.743h-0.017v0.876h-0.505l0.013-6.385L44.087,57.167z M41.51,58.994
		c0.257,0.126,0.485,0.307,0.666,0.529c0.184,0.23,0.323,0.493,0.408,0.775c0.186,0.615,0.186,1.272,0,1.887
		c-0.086,0.282-0.226,0.544-0.411,0.773c-0.182,0.221-0.41,0.399-0.668,0.522c-0.58,0.257-1.241,0.257-1.821,0
		c-0.258-0.124-0.485-0.303-0.666-0.524c-0.184-0.23-0.323-0.493-0.408-0.775c-0.185-0.615-0.185-1.272,0-1.887
		c0.086-0.281,0.226-0.543,0.411-0.772c0.182-0.221,0.41-0.401,0.668-0.526C40.267,58.733,40.931,58.733,41.51,58.994 M39.91,59.439
		c-0.195,0.111-0.364,0.263-0.493,0.447c-0.134,0.192-0.235,0.405-0.298,0.63c-0.067,0.234-0.101,0.476-0.101,0.72
		c-0.001,0.244,0.032,0.486,0.099,0.721c0.062,0.226,0.162,0.439,0.295,0.631c0.129,0.184,0.297,0.337,0.491,0.448
		c0.431,0.227,0.946,0.227,1.376,0c0.196-0.11,0.364-0.263,0.493-0.447c0.135-0.191,0.235-0.405,0.298-0.63
		c0.134-0.47,0.134-0.969,0-1.44c-0.062-0.226-0.162-0.439-0.295-0.631c-0.129-0.184-0.297-0.337-0.491-0.448
		c-0.431-0.227-0.946-0.227-1.376,0 M31.955,58.914v0.777h0.026c0.131-0.268,0.327-0.499,0.572-0.67
		c0.269-0.17,0.584-0.254,0.902-0.24c0.284-0.003,0.564,0.076,0.806,0.226c0.244,0.154,0.418,0.399,0.482,0.68
		c0.118-0.285,0.326-0.524,0.594-0.679c0.254-0.147,0.543-0.223,0.837-0.222c0.994,0,1.489,0.54,1.487,1.621l-0.006,3.13h-0.548
		l0.006-3.106c0.022-0.309-0.061-0.616-0.234-0.873c-0.214-0.223-0.52-0.335-0.828-0.301c-0.206-0.008-0.411,0.039-0.593,0.137
		c-0.154,0.09-0.284,0.217-0.375,0.371c-0.097,0.164-0.164,0.344-0.197,0.532c-0.039,0.205-0.059,0.413-0.058,0.621l-0.005,2.611
		h-0.548l0.006-3.13c0.001-0.149-0.014-0.298-0.047-0.443c-0.028-0.131-0.081-0.255-0.156-0.365
		c-0.074-0.106-0.174-0.191-0.291-0.247c-0.139-0.064-0.291-0.095-0.444-0.091c-0.209-0.005-0.417,0.039-0.606,0.129
		c-0.167,0.082-0.311,0.205-0.419,0.357c-0.113,0.162-0.194,0.344-0.24,0.536c-0.055,0.221-0.082,0.448-0.08,0.675l-0.005,2.576
		h-0.548l0.009-4.615L31.955,58.914z M27.32,58.905V59.7h0.017c0.106-0.281,0.303-0.518,0.559-0.674
		c0.263-0.168,0.569-0.256,0.88-0.253c0.268-0.007,0.536,0.036,0.788,0.127c0.197,0.074,0.372,0.195,0.509,0.354
		c0.133,0.162,0.225,0.354,0.269,0.559c0.054,0.244,0.08,0.493,0.077,0.743l-0.005,2.969h-0.548l0.005-2.88
		c0.001-0.184-0.016-0.368-0.051-0.548c-0.03-0.159-0.092-0.31-0.183-0.443c-0.089-0.128-0.211-0.23-0.352-0.296
		c-0.174-0.077-0.363-0.115-0.554-0.109c-0.202-0.004-0.403,0.036-0.588,0.119c-0.167,0.077-0.316,0.19-0.436,0.331
		c-0.124,0.148-0.219,0.318-0.28,0.501c-0.069,0.203-0.106,0.416-0.11,0.63l-0.005,2.693h-0.548l0.009-4.615L27.32,58.905z
		 M25.726,63.516h-0.548l0.009-4.615h0.548L25.726,63.516z M25.737,58.036h-0.548v-0.903h0.548V58.036z"/>
	<g>
		<rect x="1" y="43.066" fill="#1C3D6E" width="2.365" height="9.225"/>
		<path fill="#1C3D6E" d="M8.895,52.291c-0.775,0-1.807-0.159-2.325-0.917c-0.178-0.275-0.282-0.889-0.29-1.705h2.374
			c0.101,0.672,0.564,0.833,1.195,0.833l3.91-0.001c0.659,0,1.311-0.051,1.611-0.42c0.199-0.259,0.214-0.701,0.042-1.081
			c-0.253-0.521-1.005-0.453-1.787-0.464l-4.368-0.094c-0.912-0.01-2.213-0.102-2.718-1.07c-0.38-0.703-0.361-2.656,0.029-3.32
			c0.546-0.913,1.532-0.987,2.669-0.987l0.623,0.002h5.087c1.132,0,1.908,0.314,2.308,0.934c0.236,0.346,0.257,1.322,0.257,1.847
			h-2.344c-0.159-0.824-0.718-0.993-1.513-0.99l-3.644-0.004c-0.471,0.001-1.043,0.111-1.269,0.609
			c-0.127,0.281-0.107,0.799,0.014,1.024c0.276,0.503,1.088,0.442,1.77,0.442l0.275-0.001l3.613-0.01
			c0.112,0.005,0.245,0.006,0.39,0.008c0.919,0.011,2.343,0.248,2.854,1.188c0.376,0.708,0.322,2.364-0.102,3.053
			c-0.677,1.125-2.829,1.125-3.748,1.125H8.895z"/>
		<path fill="#1C3D6E" d="M30.718,52.291l-0.978-1.773h-6.413l-0.893,1.773h-2.596l4.916-9.225h3.531l4.997,9.225H30.718z
			 M24.15,49.069h4.795l-2.436-4.624L24.15,49.069z"/>
		<path fill="#1C3D6E" d="M39.083,52.291c-1.094,0-2.455,0-3.257-0.791c-0.813-0.824-0.813-1.781-0.813-3.229l0-1.367
			c-0.002-1.147-0.004-2.231,0.779-3.025c0.824-0.813,2.605-0.813,3.46-0.813h4.805c1.332,0,2.104,0.167,2.63,1.08
			c0.146,0.262,0.25,1.123,0.264,1.848h-2.38c-0.162-1.117-0.939-1.127-1.757-1.137l-3.638-0.003c-0.388,0-1.196,0-1.583,0.787
			c-0.226,0.481-0.277,3.514,0.078,4.069c0.495,0.795,1.288,0.795,1.715,0.795l0.441-0.004l2.995,0.002c0.559,0,1.326,0,1.723-0.681
			c0.114-0.203,0.148-0.415,0.17-0.715h2.4c0.005,0.626-0.02,1.967-0.527,2.482c-0.659,0.703-1.677,0.703-2.494,0.703H39.083z"/>
		<path fill="#1C3D6E" d="M54.107,52.291c-0.697,0-2.549,0-3.326-0.788c-0.718-0.729-0.718-2.373-0.718-2.913l0-2.163
			c-0.004-0.707-0.009-1.889,0.714-2.592c0.71-0.71,1.817-0.769,2.985-0.769l5.188,0c1.051,0,2.358,0,3.16,0.77
			c0.614,0.575,0.6,1.783,0.592,2.504l-0.002,2.249l0.002,0.281c0.01,0.796,0.025,1.999-0.599,2.632
			c-0.501,0.508-1.682,0.788-3.325,0.788H54.107z M58.205,50.501c0,0,0.204,0.002,0.205,0.002c0.351,0,1.274-0.002,1.736-0.807
			c0.121-0.18,0.188-0.641,0.188-1.352v-1.333c0-0.489-0.034-1.123-0.198-1.369c-0.46-0.789-1.372-0.789-1.763-0.789l-0.316,0.003
			l-3.667-0.003c-0.39,0-1.303,0-1.772,0.804c-0.045,0.066-0.189,0.283-0.189,1.354v1.333c0,0.711,0.067,1.172,0.199,1.37
			c0.453,0.79,1.379,0.79,1.728,0.79l0.351-0.004L58.205,50.501z"/>
		<path fill="#1C3D6E" d="M74.603,52.291l0.001-0.123c0.008-0.99,0.013-1.704-0.399-2.073c-0.318-0.319-0.961-0.361-1.483-0.361
			l-4.668,0.001v2.556h-2.365v-9.225l8.537-0.001c0.991,0,1.791,0.054,2.317,0.736c0.517,0.665,0.562,2.794,0.364,3.479
			c-0.09,0.31-0.214,0.501-0.311,0.626c-0.298,0.383-0.689,0.549-0.906,0.622c-0.318,0.084-0.636,0.168-0.954,0.252
			c0.217,0.026,0.523,0.08,0.871,0.204c0.312,0.112,0.584,0.253,0.706,0.336c0.791,0.532,0.669,2.157,0.657,2.294l-0.002,0.677
			H74.603z M68.053,47.822c0,0,4.772,0.001,4.773,0.001c0.407,0,1.351-0.002,1.748-0.605c0.235-0.379,0.208-1.337,0.016-1.706
			c-0.343-0.658-1.262-0.658-1.608-0.658l-0.316,0.003h-4.613V47.822z"/>
		<path fill="#1C3D6E" d="M79.992,52.291v-9.225h7.336c0.832,0,2.563,0,3.273,1.261c0.541,0.957,0.528,3.479-0.022,4.425
			c-0.62,1.051-1.36,1.13-2.419,1.13h-5.803v2.409H79.992z M82.358,48.103l4.493,0.001c0.358,0,1.102,0,1.506-0.634
			c0.203-0.338,0.202-1.53,0.003-1.855c-0.4-0.759-1.264-0.759-2.1-0.759l-3.901,0V48.103z"/>
	</g>
</g>
</svg>
