<?xml version="1.0" encoding="UTF-8"?>
<svg id="Capa_2" data-name="Capa 2" xmlns="http://www.w3.org/2000/svg" viewBox="0 0 710.22 300.38">
  <defs>
    <style>
      .cls-1 {
        fill: #4a9c2d;
      }
    </style>
  </defs>
  <g id="Capa_1-2" data-name="Capa 1">
    <g>
      <g>
        <path class="cls-1" d="M346.74,1.67l27.85,93.59V1.67h20.99v139.26h-22.54l-28.87-89.17v89.17h-20.99V1.67h23.56Z"/>
        <path class="cls-1" d="M444.09,0c9.25,0,17.12,3.26,23.6,9.77,6.48,6.52,9.72,14.36,9.72,23.54v75.96c0,9.26-3.26,17.12-9.77,23.6-6.52,6.48-14.36,9.72-23.54,9.72s-17.1-3.26-23.54-9.77c-6.44-6.51-9.66-14.36-9.66-23.54V33.31c0-9.25,3.26-17.12,9.77-23.6,6.51-6.48,14.33-9.72,23.43-9.72ZM455.53,32.87c0-3.33-1.17-6.16-3.5-8.5s-5.16-3.5-8.5-3.5-6.18,1.17-8.55,3.5c-2.37,2.33-3.55,5.16-3.55,8.5v76.18c0,3.33,1.18,6.16,3.55,8.5,2.37,2.33,5.22,3.5,8.55,3.5s6.16-1.17,8.5-3.5c2.33-2.33,3.5-5.16,3.5-8.5V32.87Z"/>
        <path class="cls-1" d="M525.91,1.78c11.7,0,20.28,3.22,25.76,9.66,4.81,5.63,7.22,13.48,7.22,23.54v20.21c0,9.85-3.74,18.18-11.22,24.99l15.55,60.74h-22.7l-12.73-52.42h-13.99v52.42h-20.99V1.78h33.09ZM538.46,35.31c0-8.07-4-12.1-11.99-12.1h-12.66v44.53h12.66c3.33,0,6.16-1.18,8.49-3.55,2.33-2.37,3.5-5.22,3.5-8.55v-20.32Z"/>
        <path class="cls-1" d="M593.52,22.88h-22.32V1.78h65.52v21.1h-22.21v118.05h-20.99V22.88Z"/>
        <path class="cls-1" d="M650.47,140.92V1.67h59.74v21.1h-38.76v37.98h28.32v21.1h-28.32v37.98h38.76v21.1h-59.74Z"/>
      </g>
      <g>
        <path class="cls-1" d="M348.85,300.09l-24.56-139.29h21.72l17.25,108.58,17.37-108.58h21.73l-25,139.29h-28.51Z"/>
        <path class="cls-1" d="M416.6,300.09v-139.41h58.99v21.12h-38.27v38.02h27.96v21.12h-27.96v38.02h38.27v21.12h-58.99Z"/>
        <path class="cls-1" d="M519.44,160.8c11.55,0,20.03,3.22,25.44,9.67,4.75,5.63,7.13,13.49,7.13,23.57v20.23c0,9.86-3.69,18.2-11.08,25.01l15.35,60.81h-22.41l-12.57-52.47h-13.82v52.47h-20.72v-139.29h32.68ZM531.83,194.37c0-8.08-3.95-12.12-11.84-12.12h-12.5v44.58h12.5c3.29,0,6.09-1.18,8.39-3.56,2.3-2.37,3.45-5.22,3.45-8.56v-20.34Z"/>
        <path class="cls-1" d="M636.09,266.74c0,9.19-3.18,17.05-9.54,23.57-6.36,6.52-14.04,9.78-23.03,9.78h-32.57v-139.41h32.57c9.06,0,16.76,3.26,23.08,9.78,6.32,6.52,9.49,14.34,9.49,23.46v72.82ZM591.68,279.31h12.5c3.29,0,6.07-1.2,8.33-3.61,2.27-2.41,3.4-5.24,3.4-8.5v-72.93c0-3.34-1.15-6.19-3.45-8.56-2.3-2.37-5.06-3.56-8.28-3.56h-12.5v97.16Z"/>
        <path class="cls-1" d="M651.21,300.09v-139.41h58.99v21.12h-38.27v38.02h27.96v21.12h-27.96v38.02h38.27v21.12h-58.99Z"/>
      </g>
      <g>
        <path class="cls-1" d="M111.74,198.12c1.11,1.32,2.04,2.38,2.93,3.48.11.13.21.26.32.39,18.59,23.2,21.77,55.33,7.99,81.67-2.82,5.39-5.99,10.62-9.52,15.7-.45.64-1.18,1.02-1.96,1.02-34.37-.02-68.73-.01-103.1-.02-5.04,0-8.33-3.3-8.35-8.38-.03-7.81-.01-15.63-.01-23.44,0-35.05,0-70.11,0-105.16,0-.47.03-.95,0-1.42-.08-.9.2-1.29,1.22-1.28,10.36.04,20.72-.04,31.09.07,5.57.06,11.11.71,16.59,1.75.24.05.53,0,.73.35-.34.33-.81.36-1.23.51-18.18,6.45-28.95,19.16-32.18,38.18-.47,2.76-.93,2.79,2.7,2.22,19.34-3.06,34.24-17,38.61-36.08.03-.13.07-.25.1-.38.58-2.72.58-2.73,3.21-1.93,17.17,5.23,32.16,14.14,45.03,26.64.27.27.52.56.79.84-.27.42-.69.4-1.04.48-18.89,4.62-32.81,20.08-35.44,39.38q-.32,2.37,2.24,2.01c18.84-2.67,34.14-16.36,38.84-34.76.13-.5.25-1,.46-1.84Z"/>
        <path class="cls-1" d="M159.31,202.29c-.18-4.17-.04-7.96.26-11.73,1.18-15.2,5.06-29.69,12.35-43.11,16.47-30.31,41.5-49.51,75.23-57.13,7.52-1.7,15.17-2.35,22.87-2.37,9.32-.02,18.65.02,27.97-.03,1.23,0,1.7.21,1.69,1.6-.06,16.58-.06,33.15,0,49.73,0,1.39-.46,1.62-1.69,1.62-11.31.04-22.62-.19-33.93.13-1.16.03-2.32.11-3.55.16.14-.47.57-.49.87-.64,15.46-7.72,24.35-20.14,26.7-37.26.15-1.07-.04-1.31-1.15-1.19-19.99,2.01-37.12,17.9-40.66,37.77-.57,3.2-.57,3.18-3.65,3.88-34.96,7.93-62.26,26.94-82.1,56.74-.33.5-.67.99-1.23,1.82Z"/>
        <path class="cls-1" d="M139.47,202.32c-2.54-3.9-4.93-7.44-7.57-10.8-17.99-22.91-40.95-38.39-69.07-46.12-1.56-.43-1.56-1.39-1.74-2.51-2.63-16.6-11.48-28.65-26.54-36.08-4.49-2.21-9.29-3.46-14.25-4.08-1.47-.18-1.59-.07-1.38,1.4,2.48,17.13,11.43,29.56,27.01,37.18.23.11.47.22.69.35.06.04.1.13.27.38-1.9-.19-3.66-.36-5.42-.55-4.51-.49-9.04-.62-13.58-.63-8.72-.02-17.44,0-26.16,0-1.71,0-1.72,0-1.72-1.7,0-16.49,0-32.98,0-49.47,0-1.73,0-1.74,1.67-1.74,9.15,0,18.3-.02,27.46,0,52.09.15,97.23,36.9,107.97,87.89,1.77,8.39,2.52,16.88,2.42,25.46,0,.21-.03.42-.07,1.03Z"/>
        <path class="cls-1" d="M159.39,129.24c-.27-.51-.13-1.02-.13-1.52,0-23.44,0-46.87-.04-70.31,0-1.37.31-1.87,1.75-2.1,19.63-3.25,34.43-17.37,38.56-36.71.31-1.43.41-2.9.69-4.34.24-1.19-.32-1.29-1.26-1.17-6.82.85-13.2,2.97-19.04,6.61-9.68,6.02-16.32,14.46-19.98,25.26-.15.43-.15.93-.69,1.39,0-.54,0-.95,0-1.36,0-13.98,0-27.97,0-41.95q0-1.64,1.7-1.65c22.62,0,45.24,0,67.86,0q1.67,0,1.68,1.67c0,5.61.04,11.22,0,16.83-.2,21.83-7.32,41.16-21.13,58.04-4.83,5.91-10.39,11.05-16.55,15.58-12.97,9.53-23.78,21.12-32.52,34.64-.25.38-.39.86-.89,1.09Z"/>
        <path class="cls-1" d="M139.48,73.47c-.43-.3-.43-.68-.54-.99-7.01-18.75-20.41-29.49-40.27-32.16-.81-.11-1.36-.18-1.23,1.04,2.16,20.56,16.25,36.88,36.1,41.72,1.59.39,3.21.7,4.83.88.97.11,1.2.48,1.19,1.39-.03,6.04-.02,12.09-.02,18.13,0,8.11,0,16.23,0,24.34,0,.45.13.93-.13,1.39-.48-.16-.6-.61-.82-.95-9.12-14.12-20.68-25.86-34.11-35.97-16.88-12.71-27.88-29.56-33.29-50.01-2-7.54-2.94-15.23-2.87-23.05.05-5.52.03-11.05-.01-16.57,0-1.03.31-1.3,1.31-1.3,22.88.03,45.76.02,68.64,0,.87,0,1.32.1,1.32,1.17-.03,23.48-.02,46.96-.03,70.44,0,.13-.03.25-.06.48Z"/>
        <path class="cls-1" d="M236.93,72.3c2.01-3.9,3.78-7.59,5.29-11.4,5.1-12.85,7.83-26.17,7.99-40,.07-6.04.04-12.09,0-18.13,0-1.05.26-1.41,1.36-1.4,13.3.04,26.59.01,39.89.03,4.79,0,8.18,3.39,8.19,8.15.02,19.08,0,38.16.03,57.23,0,1.19-.38,1.42-1.48,1.42-8.94-.04-17.87.03-26.81-.04-11.19-.08-22.22,1.14-33.08,3.86-.37.09-.74.14-1.39.27Z"/>
        <path class="cls-1" d="M61.86,72.34c-3.93-.91-7.58-1.75-11.27-2.36-7.08-1.18-14.2-1.8-21.38-1.79-9.19.01-18.39-.02-27.58.03-1.23,0-1.62-.32-1.62-1.58C.04,47.73.02,28.83.03,9.92.04,4.65,3.36,1.4,8.65,1.4c12.78,0,25.55.02,38.33-.03,1.24,0,1.61.31,1.6,1.57-.05,6.39-.11,12.78.04,19.16.39,17.1,4.57,33.25,12.37,48.47.25.49.49,1,.87,1.76Z"/>
        <path class="cls-1" d="M185.39,299.48c-3.53-5.08-6.89-10.27-9.7-15.65-13.78-26.35-10.6-58.47,7.99-81.67.1-.13.22-.28.33-.41,3.63-4.46,7.64-8.68,12.03-12.68,6.77-6.16,14.23-11.35,22.31-15.65,1.36-.72,1.33-.71,1.7.75,5.11,19.81,17.65,31.88,37.69,36.13.72.15,1.45.25,2.17.34,1.73.22,1.85.1,1.62-1.67-.42-3.22-1.08-6.38-2.19-9.44-5.46-15-15.79-24.93-31.01-29.76-.33-.1-.65-.22-1.27-.44,2.66-1.21,5.09-2.08,7.53-2.9,11.39-3.81,23.08-5.75,35.1-5.74,9.5.01,19,.02,28.49-.03,1.21,0,1.49.35,1.49,1.52-.03,43.3-.02,86.59-.03,129.89,0,4.94-3.33,8.28-8.3,8.29-34.71.01-69.42,0-104.13.02-.8,0-1.34-.19-1.83-.89Z"/>
      </g>
    </g>
  </g>
</svg>