<svg xmlns="http://www.w3.org/2000/svg" viewBox="0 0 317.59 61.24"><defs><style>.cls-1{fill:#f2f0f0;}.cls-2{fill:#a43a45;}</style></defs><title>Recurso 1</title><g id="Capa_2" data-name="Capa 2"><g id="Capa_1-2" data-name="Capa 1"><path class="cls-1" d="M20.46,35a6.54,6.54,0,0,0-7-5.45,5.59,5.59,0,0,0-6.1,5.05v0a4.61,4.61,0,0,0,4.16,4.56l5.1,1.05c6.26,1.25,9.61,5.22,9.61,10.21,0,5.51-4.45,10.76-12.55,10.76C4.7,61.24.55,55.44,0,50.33l5.6-1.6a7.64,7.64,0,0,0,8.12,7.11h0c4.25,0,6.46-2.16,6.46-4.91,0-2.3-1.71-4.15-4.76-4.8l-5-1.05c-5.41-1.1-9-4.66-9-10,0-5.95,5.46-10.86,12.07-10.86,8.36,0,11.61,5.11,12.41,9.06Z"/><polygon class="cls-1" points="103.2 60.49 103.2 26.81 109.31 25 109.31 58.63 103.2 60.49"/><polygon class="cls-1" points="202.4 30.66 202.4 58.69 196.39 60.49 196.39 30.66 184.88 30.66 184.88 25 213.96 25 213.96 30.66 202.4 30.66"/><path class="cls-1" d="M289.24,48.13V26.79L295.19,25V47.78c0,5,2.75,7.76,7.26,7.76s7.26-2.76,7.26-7.76V25h6V48.13c0,8.56-5.81,13.11-13.27,13.11s-13.21-4.55-13.21-13.11"/><polygon class="cls-2" points="302.47 0 287.37 15.11 293.96 15.11 302.47 6.59 310.99 15.11 317.59 15.11 302.47 0"/></g></g></svg>